<svg xmlns="http://www.w3.org/2000/svg" width="1214.954" height="726.99" viewBox="0 0 1214.954 726.99"><defs><style>.a{opacity:0.182;}.b,.c{fill:none;stroke-miterlimit:10;stroke-width:8px;}.b{stroke:#e5b862;}.c{stroke:#f7f4ee;}</style></defs><g class="a" transform="translate(4.001 7.644)"><path class="b" d="M969.584-554.986S1692.6-691,1739.244-338.017c9.159,69.323,23.8,170.2-112.138,438.079h-63.939s14.147-57.149,23.2-71.86l-50.922-150.514s-186.234,112.36-513.757,21.581L956.053,100.061H892.868S904.8,47.223,913.46,32.991l-1.237-176.969S777.1-136.559,658.99-230.7c-21.639-21.634-25.257-70.392,7.491-94.367,0,0,80.8-11.468,136.354-103.854" transform="translate(-642.314 615.284)"/><path class="b" d="M959.545-424.647S848.271-385.34,816.823-588.537c0,0,38.7,22.374,110.067,21.772s116.716,18.143,79.825,99.179" transform="translate(-691.305 588.537)"/><path class="c" d="M618.77-526.019s98.607.8,87.1,71.195-24.384,87.87-46.927,57.5,5.561-82.06,58.888-21.621c13.806,15.642,10.581,69.008,10.581,69.008" transform="translate(478.161 803.285)"/><path class="c" d="M806.272-458.273,752.791-320.646H683.055s7.66-51.455,29.546-67.079l-26.81-68.139" transform="translate(115.53 1035.991)"/><path class="c" d="M900.373-403.656,859.878-271.721H788.9l28.349-73.554,10.133-127.242" transform="translate(-448.012 987.067)"/></g></svg>