<svg xmlns="http://www.w3.org/2000/svg" width="439.08" height="441.313" viewBox="0 0 439.08 441.313">
  <g id="Group_19" data-name="Group 19" transform="translate(-325.05 1219.461)" opacity="0.25">
    <g id="Group_14" data-name="Group 14" transform="translate(666.714 -1021.234)">
      <path id="Path_3" data-name="Path 3" d="M1048.235-828.782s17.432,92.666-27.808,98.644c-8.885,1.174-21.814,3.051-56.147-14.372V-752.7s7.325,1.813,9.21,2.973l19.291-6.527s-14.4-23.869-2.766-65.846l-25.735-8.413v-8.1s6.772,1.528,8.6,2.639l22.682-.159a52.355,52.355,0,0,1,11.114-32.457c2.773-2.773,9.022-3.237,12.095.96,0,0,1.47,10.357,13.311,17.476" transform="translate(-964.28 870.727)" fill="none" stroke="#000" stroke-miterlimit="10" stroke-width="6"/>
      <path id="Path_4" data-name="Path 4" d="M1088.324-824.133s-5.038-14.262,21.005-18.292c0,0-2.868,4.961-2.79,14.106s-2.325,14.96-12.712,10.232" transform="translate(-1017.646 858.513)" fill="none" stroke="#000" stroke-miterlimit="10" stroke-width="6"/>
      <path id="Path_5" data-name="Path 5" d="M1045.922-623.392s-.1,12.638-9.125,11.164-11.262-3.125-7.37-6.014,10.518.712,2.771,7.547c-2,1.769-8.844,1.356-8.844,1.356" transform="translate(-989.775 763.982)" fill="none" stroke="#000" stroke-miterlimit="10" stroke-width="6"/>
      <path id="Path_6" data-name="Path 6" d="M981.919-674.87l-17.639-6.855v-8.937s6.595.982,8.6,3.786l8.733-3.436" transform="translate(-964.28 793.014)" fill="none" stroke="#000" stroke-miterlimit="10" stroke-width="6"/>
      <path id="Path_7" data-name="Path 7" d="M981.19-779.576l-16.91-5.19v-9.1l9.427,3.633,16.308,1.3" transform="translate(-964.28 837.554)" fill="none" stroke="#000" stroke-miterlimit="10" stroke-width="6"/>
    </g>
    <g id="Group_15" data-name="Group 15" transform="translate(493.32 -872.832)">
      <path id="Path_8" data-name="Path 8" d="M741.671-577.448S649-594.88,643.026-549.64c-1.174,8.885-3.051,21.814,14.372,56.147h8.195s-1.813-7.325-2.973-9.21l6.527-19.291s23.869,14.4,65.847,2.766l8.412,25.735h8.1s-1.529-6.772-2.639-8.6l.159-22.682a52.356,52.356,0,0,0,32.456-11.115c2.773-2.773,3.237-9.022-.96-12.095,0,0-10.356-1.47-17.476-13.311" transform="translate(-628.931 585.176)" fill="none" stroke="#000" stroke-miterlimit="10" stroke-width="6"/>
      <path id="Path_9" data-name="Path 9" d="M824.552-567.532s14.262,5.038,18.292-21.005c0,0-4.961,2.868-14.107,2.79s-14.959,2.325-10.231,12.711" transform="translate(-704.246 588.537)" fill="none" stroke="#000" stroke-miterlimit="10" stroke-width="6"/>
      <path id="Path_10" data-name="Path 10" d="M632.865-526.019s-12.638.1-11.164,9.125,3.125,11.262,6.014,7.37-.713-10.517-7.547-2.771c-1.769,2-1.356,8.845-1.356,8.845" transform="translate(-618.77 561.555)" fill="none" stroke="#000" stroke-miterlimit="10" stroke-width="6"/>
      <path id="Path_11" data-name="Path 11" d="M683.055-458.273l6.854,17.639h8.938s-.982-6.595-3.787-8.6l3.436-8.733" transform="translate(-646.514 532.317)" fill="none" stroke="#000" stroke-miterlimit="10" stroke-width="6"/>
      <path id="Path_12" data-name="Path 12" d="M788.9-463.69l5.19,16.91h9.1l-3.633-9.427-1.3-16.308" transform="translate(-692.197 538.464)" fill="none" stroke="#000" stroke-miterlimit="10" stroke-width="6"/>
    </g>
    <text id="PIGS_NOT_PETS" data-name="PIGS
NOT
PETS" stroke-miterlimit="10" stroke="#000" transform="translate(567.827 -1018.885)" stroke-width="2" font-size="45" font-family="Helvetica-Bold, Helvetica" font-weight="700" letter-spacing="0.05em"><tspan x="-57.142" y="0">PIGS</tspan><tspan x="-49.744" y="54">NOT</tspan><tspan x="-62.141" y="108">PETS</tspan></text>
    <line id="Line_1" data-name="Line 1" y1="312.592" transform="translate(476.55 -1219.461)" fill="none" stroke="#000" stroke-miterlimit="10" stroke-width="6"/>
    <g id="Group_16" data-name="Group 16" transform="translate(328.094 -1106.052)">
      <circle id="Ellipse_1" data-name="Ellipse 1" cx="3.276" cy="3.276" r="3.276" transform="translate(74.182 55.925)"/>
      <path id="Path_13" data-name="Path 13" d="M438.065-878.421c2.1,1.049,2.859,6.253.893,7.772s-2.948-.983-3.841-2.412-1.7-4.824-.536-5.36A3.974,3.974,0,0,1,438.065-878.421Z" transform="translate(-373.802 959.039)" fill="none" stroke="#000" stroke-miterlimit="10" stroke-width="6"/>
      <path id="Path_14" data-name="Path 14" d="M364.636-925.133C322.248-936.269,349-974.44,349-974.44c-21.427,2.82-17.29-24.626-17.1-26.315s1.5-5.827-.751-9.031-5.075-6.948-.938-8.643c25.372-8.082,38.157,18.8,38.157,18.8a29.7,29.7,0,0,1,15.184-4.109h0a29.7,29.7,0,0,1,15.184,4.109s12.784-26.881,38.157-18.8c4.137,1.7,1.317,5.44-.938,8.643s-.938,7.335-.752,9.031,4.324,29.136-17.1,26.315c0,0,26.755,38.171-15.633,49.307" transform="translate(-328.094 1019.944)" fill="none" stroke="#000" stroke-miterlimit="10" stroke-width="6"/>
      <circle id="Ellipse_2" data-name="Ellipse 2" cx="3.276" cy="3.276" r="3.276" transform="translate(30.184 55.925)"/>
      <path id="Path_15" data-name="Path 15" d="M408.63-878.421c-2.1,1.049-2.859,6.253-.894,7.772s2.948-.983,3.841-2.412,1.7-4.824.536-5.36A3.974,3.974,0,0,0,408.63-878.421Z" transform="translate(-361.975 959.039)" fill="none" stroke="#000" stroke-miterlimit="10" stroke-width="6"/>
      <path id="Path_16" data-name="Path 16" d="M408.958-871.368c-17.318,2.172-22-3.654-22-9.7a21.677,21.677,0,0,1,7.654-15.5,22.389,22.389,0,0,1,28.69,0,21.679,21.679,0,0,1,7.654,15.5C430.957-875.023,426.276-869.2,408.958-871.368Z" transform="translate(-353.499 968.941)" fill="none" stroke="#000" stroke-miterlimit="10" stroke-width="6"/>
    </g>
    <g id="Group_17" data-name="Group 17" transform="translate(528.335 -1188.191)">
      <circle id="Ellipse_3" data-name="Ellipse 3" cx="3.276" cy="3.276" r="3.276" transform="translate(55.925 30.184)"/>
      <path id="Path_17" data-name="Path 17" d="M821.895-1083.912c1.048-2.1,6.253-2.859,7.772-.894s-.983,2.948-2.412,3.841-4.824,1.7-5.36.536A3.974,3.974,0,0,1,821.895-1083.912Z" transform="translate(-741.277 1130.568)" fill="none" stroke="#000" stroke-miterlimit="10" stroke-width="6"/>
      <path id="Path_18" data-name="Path 18" d="M775.183-1090.073c-11.136,42.387-49.307,15.633-49.307,15.633,2.82,21.427-24.626,17.29-26.316,17.1s-5.827-1.5-9.03.751-6.948,5.076-8.643.939c-8.082-25.373,18.8-38.157,18.8-38.157a29.694,29.694,0,0,1-4.109-15.184v0a29.694,29.694,0,0,1,4.109-15.184s-26.881-12.785-18.8-38.157c1.7-4.137,5.44-1.316,8.643.938s7.335.938,9.03.752,29.135-4.324,26.316,17.1c0,0,38.171-26.754,49.307,15.633" transform="translate(-680.372 1164.449)" fill="none" stroke="#000" stroke-miterlimit="10" stroke-width="6"/>
      <circle id="Ellipse_4" data-name="Ellipse 4" cx="3.276" cy="3.276" r="3.276" transform="translate(55.925 74.182)"/>
      <path id="Path_19" data-name="Path 19" d="M821.895-1054.478c1.048,2.1,6.253,2.859,7.772.894s-.983-2.948-2.412-3.841-4.824-1.7-5.36-.536A3.974,3.974,0,0,0,821.895-1054.478Z" transform="translate(-741.277 1118.74)" fill="none" stroke="#000" stroke-miterlimit="10" stroke-width="6"/>
      <path id="Path_20" data-name="Path 20" d="M828.947-1083.585c2.172,17.318-3.654,22-9.7,22a21.674,21.674,0,0,1-15.5-7.654,22.388,22.388,0,0,1,0-28.69,21.678,21.678,0,0,1,15.5-7.654C825.293-1105.584,831.119-1100.9,828.947-1083.585Z" transform="translate(-731.375 1139.044)" fill="none" stroke="#000" stroke-miterlimit="10" stroke-width="6"/>
    </g>
  </g>
</svg>
