<svg xmlns="http://www.w3.org/2000/svg" width="45.256" height="40" viewBox="0 0 45.256 40"><path d="M22.628,39.811c-4.091.513-6.454-.068-7.718-1.127h0C-2.385,34.14,8.531,18.566,8.531,18.566-.211,19.717,1.476,8.519,1.553,7.829s.614-2.378-.307-3.685S-.825,1.31.863.618c10.352-3.3,15.568,7.67,15.568,7.67a12.116,12.116,0,0,1,6.2-1.676h0a12.116,12.116,0,0,1,6.2,1.676S34.04-2.68,44.392.618c1.688.691.538,2.219-.383,3.526s-.383,2.993-.307,3.685,1.764,11.888-6.978,10.737c0,0,10.916,15.574-6.378,20.118h0C29.4,39.475,27.842,40,25.406,40A22.414,22.414,0,0,1,22.628,39.811Z" transform="translate(0 0)"/></svg>